HIERARCHY
ROOT Pelvis
{
	OFFSET 0.000000 0.000000 0.000000
	CHANNELS 6 Xposition Yposition Zposition Xrotation Yrotation Zrotation
	JOINT LeftUpLeg_virtual
	{
		OFFSET 0.000000 0.000000 0.000000
		CHANNELS 3 Xrotation Yrotation Zrotation
		JOINT LeftUpLeg
		{
			OFFSET 18.735201 -5.666702 -4.541200
			CHANNELS 3 Xrotation Yrotation Zrotation
			JOINT LeftLeg
			{
				OFFSET -0.021200 -31.938179 0.493100
				CHANNELS 3 Xrotation Yrotation Zrotation
				JOINT LeftFoot
				{
					OFFSET 0.021200 -31.938179 -4.336299
					CHANNELS 3 Xrotation Yrotation Zrotation
					JOINT LeftToeBase
					{
						OFFSET 0.943001 -26.722000 15.023500
						CHANNELS 3 Xrotation Yrotation Zrotation
						End Site
						{
							OFFSET 0 0 0
						}
					}
				}
			}
		}
	}
	JOINT RightUpLeg_virtual
	{
		OFFSET 0.000000 0.000000 0.000000
		CHANNELS 3 Xrotation Yrotation Zrotation
		JOINT RightUpLeg
		{
			OFFSET -18.735201 -5.666702 -4.541200
			CHANNELS 3 Xrotation Yrotation Zrotation
			JOINT RightLeg
			{
				OFFSET 0.018946 -31.938133 0.493100
				CHANNELS 3 Xrotation Yrotation Zrotation
				JOINT RightFoot
				{
					OFFSET -0.018946 -31.938126 -4.336299
					CHANNELS 3 Xrotation Yrotation Zrotation
					JOINT RightToeBase
					{
						OFFSET -0.943001 -26.722004 15.023500
						CHANNELS 3 Xrotation Yrotation Zrotation
						End Site
						{
							OFFSET 0 0 0
						}
					}
				}
			}
		}
	}
	JOINT Hips_virtual
	{
		OFFSET 0.000000 0.000000 0.000000
		CHANNELS 3 Xrotation Yrotation Zrotation
		JOINT Hips
		{
			OFFSET -0.000000 -0.000000 -0.000000
			CHANNELS 3 Xrotation Yrotation Zrotation
			JOINT Spine
			{
				OFFSET 0.000000 10.199997 -0.299500
				CHANNELS 3 Xrotation Yrotation Zrotation
				JOINT Spine1
				{
					OFFSET 0.000000 11.900002 -1.516600
					CHANNELS 3 Xrotation Yrotation Zrotation
					JOINT Spine2
					{
						OFFSET 0.000000 13.600006 -2.842500
						CHANNELS 3 Xrotation Yrotation Zrotation
						JOINT Neck_virtual
						{
							OFFSET 0.000000 0.000000 0.000000
							CHANNELS 3 Xrotation Yrotation Zrotation
							JOINT Neck
							{
								OFFSET 0.000000 9.624100 -2.890100
								CHANNELS 3 Xrotation Yrotation Zrotation
								JOINT Head
								{
									OFFSET 0.000000 14.068802 -1.351900
									CHANNELS 3 Xrotation Yrotation Zrotation
									End Site
									{
										OFFSET 0 0 0
									}
								}
							}
						}
						JOINT LeftShoulder_virtual
						{
							OFFSET 0.000000 0.000000 0.000000
							CHANNELS 3 Xrotation Yrotation Zrotation
							JOINT LeftShoulder
							{
								OFFSET 15.263000 10.923401 -0.547700
								CHANNELS 3 Xrotation Yrotation Zrotation
								JOINT LeftArm
								{
									OFFSET 25.438599 -2.830597 -13.032500
									CHANNELS 3 Xrotation Yrotation Zrotation
									JOINT LeftForeArm
									{
										OFFSET 29.960503 0.000000 0.000000
										CHANNELS 3 Xrotation Yrotation Zrotation
										JOINT LeftHand
										{
											OFFSET 27.849251 0.000000 0.000000
											CHANNELS 3 Xrotation Yrotation Zrotation
											End Site
											{
												OFFSET 0 0 0
											}
										}
									}
								}
							}
						}
						JOINT RightShoulder_virtual
						{
							OFFSET 0.000000 0.000000 0.000000
							CHANNELS 3 Xrotation Yrotation Zrotation
							JOINT RightShoulder
							{
								OFFSET -15.263000 10.923401 -0.547700
								CHANNELS 3 Xrotation Yrotation Zrotation
								JOINT RightArm
								{
									OFFSET -25.438599 -2.830597 -13.032500
									CHANNELS 3 Xrotation Yrotation Zrotation
									JOINT RightForeArm
									{
										OFFSET -29.960503 0.000000 0.000000
										CHANNELS 3 Xrotation Yrotation Zrotation
										JOINT RightHand
										{
											OFFSET -27.849251 0.000000 0.000000
											CHANNELS 3 Xrotation Yrotation Zrotation
											End Site
											{
												OFFSET 0 0 0
											}
										}
									}
								}
							}
						}
					}
				}
			}
		}
	}
}
MOTION
Frames: 13
Frame Time: 0.03333333
-1.909854 81.750046 20.568260 0.000000 0.000000 0.000000 44.362820 -53.985440 23.566270 -71.903935 15.353567 37.788049 37.129923 14.185703 3.277944 -20.768056 -1.553048 -23.773226 0.000000 0.000000 0.000000 42.285903 -53.212617 21.621266 -45.044678 23.914024 -18.727803 50.007541 -0.452381 3.848328 -48.072435 -8.871114 20.609625 0.000000 0.000000 0.000000 43.291003 -53.049041 22.829217 -0.764172 0.077624 0.030767 4.232108 21.291650 11.831483 11.714368 7.555504 4.892509 0.000000 0.000000 0.000000 0.159843 10.333179 2.538106 -3.570351 -10.058940 -2.253304 0.000000 0.000000 0.000000 4.302902 9.311408 2.906705 -11.356299 -18.135638 -12.374741 5.535773 22.062792 -73.203153 160.080906 -73.631031 154.799913 0.000000 0.000000 0.000000 -2.580500 12.980333 3.697766 -26.762652 42.734346 7.772475 68.097669 -47.884120 107.656704 177.192333 36.629167 -177.869287 0.000000 0.000000 0.000000 
-3.035581 81.526085 20.623018 0.000000 0.000000 0.000000 44.834622 -53.772946 24.171831 -73.195517 14.501537 38.173272 40.055648 13.687900 2.705103 -18.821481 -2.755939 -24.195822 0.000000 0.000000 0.000000 43.401129 -52.691324 22.567107 -44.791578 23.351129 -18.973323 48.712923 0.027102 3.296453 -44.600425 -8.663677 21.439475 0.000000 0.000000 0.000000 45.099736 -53.588640 24.913204 -0.692111 0.037846 0.063863 3.654563 20.015673 12.750163 12.677239 6.878521 5.407681 0.000000 0.000000 0.000000 0.659746 9.835252 3.097032 -3.213259 -10.149672 -2.005996 0.000000 0.000000 0.000000 5.341047 8.717563 3.098255 -11.651954 -17.689811 -10.892897 9.644809 24.255142 -74.739523 156.130994 -75.967085 150.917633 0.000000 0.000000 0.000000 -1.037703 12.497426 3.854569 -26.528484 40.054101 7.086109 69.339336 -50.338972 107.650407 178.169118 31.549730 -178.401331 0.000000 0.000000 0.000000 
-5.156187 81.540512 20.549374 0.000000 0.000000 0.000000 47.697021 -53.120594 27.152790 -74.578993 13.436361 37.355647 42.620380 12.900480 2.488943 -16.798157 -3.893958 -24.515072 0.000000 0.000000 0.000000 47.133093 -52.025165 26.192333 -44.945852 22.970309 -18.773366 46.582040 -0.056334 2.527784 -42.920595 -9.031124 18.776625 0.000000 0.000000 0.000000 49.226737 -53.335021 29.078021 -0.639855 0.154296 0.080168 3.660394 17.619313 13.674797 14.603192 5.071011 6.298563 0.000000 0.000000 0.000000 2.069053 8.015522 4.030186 -3.227323 -10.041796 -1.515788 0.000000 0.000000 0.000000 7.279937 6.710771 3.743537 -11.791445 -18.002840 -9.260645 12.052081 29.554597 -76.732367 136.085836 -80.783496 131.768269 0.000000 0.000000 0.000000 1.944611 10.665021 4.260621 -27.765633 36.836098 10.279958 71.441012 -55.009872 107.001450 179.528380 24.657147 -178.462830 0.000000 0.000000 0.000000 
-7.839728 81.567871 20.305500 0.000000 0.000000 0.000000 51.803836 -51.723168 31.292180 -75.452021 12.638165 35.468476 43.561259 12.289095 2.899355 -15.395086 -4.524915 -24.418691 0.000000 0.000000 0.000000 51.612734 -50.414156 30.453846 -45.014580 22.354314 -18.629993 43.998569 -0.676891 1.925110 -45.708971 -10.084914 13.059916 0.000000 0.000000 0.000000 53.645733 -51.850066 33.281029 -0.657174 0.325251 0.073971 4.557698 14.529378 14.291406 17.394328 2.496295 7.201899 0.000000 0.000000 0.000000 4.540335 5.293384 4.966183 -3.611504 -9.743509 -0.976547 0.000000 0.000000 0.000000 10.073422 3.757245 4.589602 -11.731701 -19.503274 -7.432973 10.540538 36.932728 -77.124679 81.642433 -82.683722 78.884211 0.000000 0.000000 0.000000 6.258667 7.918248 4.780969 -29.671537 33.518983 16.153148 73.476026 -61.153689 105.200336 -179.037809 19.593169 -177.949787 0.000000 0.000000 0.000000 
-10.658340 81.298798 20.077024 0.000000 0.000000 0.000000 55.424550 -49.401344 34.787267 -75.286867 12.196342 32.376637 42.588531 12.196928 4.188262 -15.027328 -4.314642 -23.158914 0.000000 0.000000 0.000000 55.146674 -48.002945 33.715023 -44.975518 21.667407 -19.000210 41.906561 -1.079039 1.538163 -51.210115 -10.945019 7.768904 0.000000 0.000000 0.000000 56.980614 -49.405986 36.186209 -0.703226 0.415767 0.048388 6.270909 11.113241 14.588352 21.031471 -0.462860 7.834403 0.000000 0.000000 0.000000 8.179857 2.208172 5.580970 -4.275579 -9.290807 -0.556260 0.000000 0.000000 0.000000 13.811588 0.436319 5.218390 -11.425476 -22.654641 -5.429424 3.543341 45.060793 -73.463759 42.306031 -78.325310 41.556592 0.000000 0.000000 0.000000 11.619523 4.816836 5.208648 -31.271061 30.239559 22.614481 72.438746 -68.303831 100.286288 -177.610668 17.816451 -177.118567 0.000000 0.000000 0.000000 
-13.027704 80.693932 19.698111 0.000000 0.000000 0.000000 57.081090 -46.456833 36.326474 -73.942945 11.913403 28.340150 40.324686 12.630343 6.313015 -16.016454 -3.268449 -20.524788 0.000000 0.000000 0.000000 56.808719 -45.345001 35.241836 -44.879759 21.328137 -20.249257 40.820810 -0.632021 1.358167 -56.107026 -11.390542 5.781954 0.000000 0.000000 0.000000 58.401423 -46.512475 37.097524 -0.717631 0.415264 -0.009204 8.258606 7.800161 14.678008 25.186603 -3.144453 7.993423 0.000000 0.000000 0.000000 12.854554 -0.654884 5.643018 -4.991520 -8.683742 -0.379750 0.000000 0.000000 0.000000 18.351514 -2.609098 5.385232 -10.899575 -27.464256 -3.495266 -9.763356 50.928961 -64.229999 29.049689 -73.548877 30.467906 0.000000 0.000000 0.000000 17.593316 2.042245 5.399670 -32.238039 27.868430 28.005473 62.251908 -75.615925 86.713302 -176.170946 19.342515 -176.094038 0.000000 0.000000 0.000000 
-14.655371 79.816254 19.110094 0.000000 0.000000 0.000000 56.661952 -43.605068 36.076704 -71.888854 11.560251 24.221893 37.672448 13.073160 8.874391 -18.215321 -2.132524 -17.652578 0.000000 0.000000 0.000000 56.579207 -42.926445 35.166561 -45.086492 21.063673 -22.458671 41.340522 0.453095 1.355455 -59.574501 -11.692066 6.299894 0.000000 0.000000 0.000000 57.955084 -43.788814 36.440965 -0.715779 0.386056 -0.043253 10.106367 4.947086 14.645220 29.480910 -5.191733 7.794525 0.000000 0.000000 0.000000 18.183601 -2.913417 5.253432 -5.530053 -7.951305 -0.433684 0.000000 0.000000 0.000000 23.196880 -4.968464 5.075125 -10.270651 -33.141789 -1.779997 -27.292825 51.893107 -51.118413 24.321243 -71.347999 27.832637 0.000000 0.000000 0.000000 23.420483 -0.025621 5.259953 -32.606206 26.633737 31.949801 28.958257 -80.327136 49.719467 -174.677635 22.833736 -175.086244 0.000000 0.000000 0.000000 
-15.475218 78.969696 18.365694 0.000000 0.000000 0.000000 54.649710 -41.504338 34.737984 -69.403417 11.144981 20.799661 35.377009 13.000021 11.199078 -20.563915 -1.710286 -15.797575 0.000000 0.000000 0.000000 54.903171 -41.369913 34.238068 -45.467944 20.508427 -25.278219 43.642412 1.458770 1.478126 -62.658947 -12.064470 7.425791 0.000000 0.000000 0.000000 56.016806 -41.725257 35.015467 -0.732203 0.377422 -0.015818 11.594641 2.958292 14.326841 33.404512 -6.350534 7.370458 0.000000 0.000000 0.000000 23.649754 -4.334631 4.578703 -5.789944 -7.101709 -0.694099 0.000000 0.000000 0.000000 27.676193 -6.362919 4.346772 -9.892360 -38.956394 -0.815505 -39.855622 47.580515 -42.597315 24.831713 -73.201869 30.077660 0.000000 0.000000 0.000000 28.368274 -1.272961 4.861126 -32.335990 26.044249 34.484146 -12.701390 -78.651910 3.841929 -173.131867 26.596605 -174.374620 0.000000 0.000000 0.000000 
-15.677098 78.494904 17.747227 0.000000 0.000000 0.000000 51.726720 -40.670276 33.093202 -66.849636 10.868981 18.841266 34.066832 12.412770 12.608507 -21.392822 -2.233319 -15.691926 0.000000 0.000000 0.000000 52.225628 -40.742078 32.873854 -45.472650 19.835506 -28.073228 46.882941 1.935275 1.656525 -65.678136 -12.466880 8.136564 0.000000 0.000000 0.000000 53.174382 -40.762111 33.542683 -0.713086 0.400444 0.036839 12.948997 1.918836 13.515583 36.563328 -6.559585 6.927147 0.000000 0.000000 0.000000 28.599988 -4.854498 3.864842 -5.799943 -6.172758 -1.085706 0.000000 0.000000 0.000000 31.283475 -6.829365 3.552860 -10.025994 -44.247154 -0.975773 -44.502432 40.878641 -40.918212 32.001270 -78.285128 38.599216 0.000000 0.000000 0.000000 31.960692 -1.655042 4.439296 -31.530093 25.788359 35.759524 -29.225283 -74.721901 -16.343324 -171.919987 29.211596 -173.928472 0.000000 0.000000 0.000000 
-15.485305 78.350494 17.562094 0.000000 0.000000 0.000000 48.542612 -41.122417 31.633130 -64.585668 10.761830 18.542154 33.726132 11.594261 13.012911 -20.170005 -3.619971 -17.052324 0.000000 0.000000 0.000000 49.180521 -41.066185 31.499449 -44.851742 19.401045 -30.351277 50.050646 1.918422 1.752307 -67.910863 -12.774798 8.520880 0.000000 0.000000 0.000000 49.961488 -41.004467 32.336465 -0.703448 0.426553 0.089129 14.455230 1.507321 12.323587 38.692444 -6.267073 6.754331 0.000000 0.000000 0.000000 32.388125 -4.749229 3.428303 -5.683366 -5.210818 -1.410768 0.000000 0.000000 0.000000 33.743235 -6.605598 3.018693 -10.899339 -48.272516 -2.372732 -44.769455 34.519762 -41.905956 58.782650 -83.878042 66.691415 0.000000 0.000000 0.000000 33.988268 -1.493483 4.218032 -30.198886 25.419671 35.906465 -33.696236 -71.921591 -22.835762 -171.488893 30.065250 -173.710753 0.000000 0.000000 0.000000 
-14.989660 78.439011 17.939003 0.000000 0.000000 0.000000 45.367476 -42.436662 30.329394 -62.628682 10.682638 19.429602 34.028023 10.727828 12.709182 -17.967456 -5.537607 -18.922884 0.000000 0.000000 0.000000 46.109955 -42.153216 30.270780 -43.249704 19.812736 -31.905675 52.161140 1.849010 1.536934 -68.126035 -13.013000 9.727967 0.000000 0.000000 0.000000 46.578984 -42.171753 31.199184 -0.696676 0.448451 0.103267 16.359625 1.435353 10.961310 39.558967 -5.752162 6.959774 0.000000 0.000000 0.000000 34.559381 -4.307449 3.417174 -5.548986 -4.272720 -1.529481 0.000000 0.000000 0.000000 35.011253 -6.038948 2.997891 -12.433197 -50.653376 -4.882652 -42.566145 29.357444 -43.218459 120.644514 -85.133370 129.935046 0.000000 0.000000 0.000000 34.432230 -1.085292 4.370301 -28.538593 25.100119 34.703208 -32.086371 -70.093874 -20.725039 -172.137474 29.856290 -173.420224 0.000000 0.000000 0.000000 
-14.387493 78.635185 18.536396 0.000000 0.000000 0.000000 42.365218 -44.356024 29.180204 -60.972061 10.736251 21.169511 34.806484 9.889923 11.898667 -15.555843 -7.603852 -20.778400 0.000000 0.000000 0.000000 43.104272 -43.629763 29.035144 -40.463980 20.678560 -32.930159 52.714533 1.932171 1.180971 -66.119482 -13.199709 12.204102 0.000000 0.000000 0.000000 43.284425 -44.014784 30.060998 -0.657970 0.455538 0.079890 18.861651 1.332229 9.581919 39.303009 -5.372735 7.536050 0.000000 0.000000 0.000000 35.075480 -3.840012 3.878090 -5.444245 -3.405242 -1.359276 0.000000 0.000000 0.000000 35.178005 -5.544530 3.551837 -14.422668 -51.361131 -8.246269 -39.692859 25.743710 -43.282803 149.668364 -83.957525 160.458957 0.000000 0.000000 0.000000 33.512887 -0.751049 4.809676 -26.693375 24.949725 32.402865 -25.458321 -67.833996 -11.120286 -174.070089 29.968599 -172.783323 0.000000 0.000000 0.000000 
-13.768376 78.801750 19.360840 0.000000 0.000000 0.000000 39.344246 -46.381455 27.893091 -59.727887 11.178238 23.527690 35.840175 9.135839 10.637366 -13.527418 -9.557799 -22.392608 0.000000 0.000000 0.000000 39.952389 -45.350865 27.539065 -37.072426 21.070261 -33.686841 52.404391 2.010688 0.997727 -62.961066 -13.219966 15.164555 0.000000 0.000000 0.000000 39.909229 -46.082337 28.557882 -0.653376 0.436471 0.041933 21.886890 1.060185 8.349274 38.103679 -5.332217 8.203064 0.000000 0.000000 0.000000 34.120804 -3.615734 4.565325 -5.423411 -2.629773 -0.862641 0.000000 0.000000 0.000000 34.359410 -5.267415 4.365161 -16.415035 -50.424008 -11.826950 -37.258105 23.381297 -41.663894 158.124904 -85.117899 170.364575 0.000000 0.000000 0.000000 31.570777 -0.810920 5.235431 -24.754882 24.880043 29.617736 -18.689544 -63.374552 0.353041 -177.221279 31.629991 -171.650700 0.000000 0.000000 0.000000 
